#N canvas 219 90 647 369 12;
#X obj 382 1 r trigger;
#X msg 361 143 1 10 \, 0 1000 10;
#X obj 361 172 vline~;
#X obj 361 206 *~;
#X obj 361 243 dac~;
#X floatatom 503 175 5 0 0 0 - - -;
#X obj 503 209 mtof;
#X obj 503 246 osc~ 220;
#X obj 503 143 r midinote;
#X obj 382 27 t b b;
#X obj 147 203 *~;
#X obj 147 234 *~ 0.1;
#X obj 147 271 dac~;
#X obj 147 175 vline~;
#X obj 233 184 noise~;
#X msg 147 142 1 10 \, 0 200 10;
#X obj 352 3 bng 15 250 50 0 empty empty empty 17 7 0 10 -262144 -1
-1;
#X obj 361 117 spigot;
#X floatatom 257 28 0 0 0 0 - - -;
#X obj 257 3 r clear;
#X obj 147 117 spigot;
#X floatatom 499 27 5 0 0 0 - - -;
#X obj 499 2 r activateTone;
#X obj 80 2 r activateNoise;
#X floatatom 80 29 5 0 0 0 - - -;
#X obj 56 4 bng 15 250 50 0 empty empty empty 17 7 0 10 -262144 -1
-1;
#X obj 234 4 bng 15 250 50 0 empty empty empty 17 7 0 10 -262144 -1
-1;
#X obj 479 4 bng 15 250 50 0 empty empty empty 17 7 0 10 -262144 -1
-1;
#X connect 0 0 9 0;
#X connect 1 0 2 0;
#X connect 2 0 3 0;
#X connect 3 0 4 0;
#X connect 3 0 4 1;
#X connect 5 0 6 0;
#X connect 6 0 7 0;
#X connect 7 0 3 1;
#X connect 8 0 5 0;
#X connect 9 0 20 0;
#X connect 9 1 17 0;
#X connect 10 0 11 0;
#X connect 11 0 12 0;
#X connect 11 0 12 1;
#X connect 13 0 10 0;
#X connect 14 0 10 1;
#X connect 15 0 13 0;
#X connect 16 0 9 0;
#X connect 17 0 1 0;
#X connect 18 0 17 1;
#X connect 18 0 20 1;
#X connect 19 0 18 0;
#X connect 20 0 15 0;
#X connect 21 0 17 1;
#X connect 22 0 21 0;
#X connect 23 0 24 0;
#X connect 24 0 20 1;
#X connect 25 0 24 0;
#X connect 26 0 18 0;
#X connect 27 0 21 0;
